<svg xmlns="http://www.w3.org/2000/svg" xmlns:xlink="http://www.w3.org/1999/xlink" id="Layer_1" x="0px" y="0px" viewBox="0 0 1735.8 1024.4" style="enable-background:new 0 0 1735.8 1024.4;" xml:space="preserve"><style type="text/css">	.st0{fill:#1A2E59;}	.st1{fill:#FFFFFF;}</style><g>	<g>		<path class="st0" d="M904.1,322.9c-24.7-13.3-51-21.8-78.7-26.2c-13-2.1-25.8-4.3-39-3.4c-3.5,0-7,0-10.6,0   c-6.1-0.1-12.1,0.2-18.1,1.5c-5.3,1.2-10.7,1.6-16.1,2.6c-13.8,2.5-27.6,5.6-40.9,10.2c-60.1,20.8-106.4,58.6-139.2,113   c-21.9,36.3-33.5,75.8-36,118c-0.7,12.1-0.2,24.2,0.9,36.4c2,20.5,6.2,40.4,13.3,59.7c22.3,60.6,61.8,106.8,117.6,139   c22.3,12.9,46.1,21.9,71.4,27.1c10.6,2.2,21.4,3.7,32.1,5.5c6.4,1.1,12.7,1.3,19.1,1.3c4.5,0,9,0,13.4,0c3.5,0,7-0.2,10.5-0.9   c6-1.1,12-1.7,18-2.7c7.9-1.4,15.8-2.6,23.5-4.5c46.7-11.7,87.3-34.3,121-68.7c44.5-45.5,68.5-100.3,73.1-163.5   c2.1-29.6-1-58.8-9.2-87.3C1010.1,409.9,968.2,357.4,904.1,322.9z M928.3,653.7c-25.7,36-60.5,59-103.5,69.4   c-14.7,3.5-29.6,5.2-44.7,4.9c-29.3-0.6-56.9-7.9-82.4-22.4c-43-24.5-72.2-60.3-86.6-107.8c-6.1-20.1-8.3-40.7-6.5-61.6   c3-35,15.4-66.4,37.2-93.9c27-34.1,61.9-55.8,104.1-65.6c17.2-4,34.8-5.4,52.4-4c77,6.2,132.2,57.1,152.8,117.5   c5.9,17.1,10.1,38.8,9.8,54.6C961,587.5,950.6,622.5,928.3,653.7z"></path>		<path class="st0" d="M1462.1,295.5c-0.3-7.4-1.6-14.6-3.8-21.7c-3.3-10.5-10.1-17.6-20.6-21c-5.8-1.9-11.7-3.2-17.8-3.7   c-12.8-1.1-25.5-1.8-38.3-1.7c-15.4,0.1-30.7,0.1-46.1,0c-11.9-0.1-23.6,0.8-35.4,1.8c-6.4,0.5-12.7,1.9-18.6,4.2   c-8.4,3.3-14.5,9.1-17.9,17.6c-1.6,4.2-2.9,8.4-3.5,12.9c-0.4,2.8-0.7,5.7-2.1,8.7c-1.7,0.3-3.5,0.6-5.4,0.8   c-6.7,0.8-13.4,1.2-20,2.4c-17.4,3.1-33.9,9-49.7,17c-14.4,7.3-27.3,16.6-38.3,28.4c-24.1,25.7-36.1,56.1-35.6,91.3   c0.1,10.6,1.8,21,4.8,31.2c10.1,35.1,30.2,63.2,59.9,84.3c12.8,9.1,26.8,16.1,41.5,21.7c14.4,5.5,29.2,9.5,44,13.3   c14.2,3.7,28.5,7.2,42.6,11.4c8.9,2.7,17.6,5.8,26,9.7c12,5.6,22.9,12.7,32.2,22.2c6.3,6.5,11.3,13.9,14.5,22.4   c7.2,19.3,2.6,40.1-12.9,54.4c-4.5,4.2-9.5,7.5-15.1,10.1c-4.9,2.3-10,4.2-15.3,5.5c-12.8,3.1-25.8,5-38.9,5.6   c-18.9,0.9-37.7,0-56.3-3.7c-13.2-2.7-26.1-6.2-38.6-11c-11.9-4.6-21.8-11.6-29.6-21.9c-10.9-14.5-25.9-19.1-43.4-14.8   c-14.3,3.5-25.6,16.7-27.3,31.4c-1.3,10.9,1,21,7.1,30.1c1.9,2.9,4.1,5.7,6.4,8.4c12.3,14.7,27.2,26,44.6,34.1   c34.6,16,70.8,25.7,109,27.2c16.3,0.6,32.6,0.1,48.8-1.9c16.5-2,32.8-5.6,48.7-10.2c14.5-4.2,28.3-10.2,40.8-18.7   c37.8-25.8,54.4-62.3,53.6-107.4c-0.2-8.9-1.4-17.8-3.2-26.6c-4.1-19.7-11.6-37.8-23.6-54c-8.4-11.4-18.5-21.2-29.7-29.8   c-14.3-10.9-30-19.5-46.6-26.5c-17.7-7.5-36.1-12.9-54.7-17.4c-10.9-2.6-21.8-4.9-32.6-7.7c-11.8-3-23.1-7.3-33.9-13.2   c-9-4.9-17.3-10.9-24.6-18.2c-7.1-7.1-12.6-15.3-15.8-24.8c-6.3-18.5-3.1-35.3,9.5-50.2c5-5.9,11-10.6,17.8-14.3   c9.7-5.2,20.1-8.2,31-9.4c7.4-0.8,7.9-0.1,8.2,6.6c0.1,2.2,0.1,4.5,0.2,6.7c0.2,5.7,0.4,11.5,0.7,17.2c0.4,7.4,1.6,14.6,3.8,21.7   c3.3,10.5,10.1,17.6,20.6,21c4.9,1.6,9.9,2.9,14.9,3.4c9.5,0.9,19.1,1.9,28.7,1.9c21.7-0.1,43.5-0.1,65.2,0c9.9,0,19.8-1,29.7-1.9   c5.7-0.5,11.4-1.8,16.8-3.8c9.6-3.5,16.2-10.1,19.5-19.7c1.1-3.3,1.9-6.7,2.7-10.2c1.4-6.6,1.9-13.3,2.2-20   c1.1-24,1-47.9,0.8-71.9C1463,315.3,1462.5,305.4,1462.1,295.5z M1418.6,389.9c-2.6,6.6-6.3,12.5-11.2,17.8   c-2.4,2.6-5.1,4.8-8.2,6.5c-6.2,3.3-12.5,4.5-19.4,2.7c-5.3-1.4-10.3-3.5-14.9-6.5c-4.3-2.8-8.4-5.8-12-9.6   c-12.8-13.5-28.8-20.9-46.4-25.4c-12.2-3.1-24.6-4.1-37.1-3.8c-12,0.3-11.1,1.2-10.9-10.4c0.2-19.8,0.6-39.6,0.9-59.4   c0-2.5-0.2-5.1,1.6-7.6c7.8-1,15.8-0.8,23.7-0.1c16.9,1.5,33.6,4.3,49.9,9.2c13.2,4,26,8.9,38.2,15.3c8.5,4.5,16.6,9.5,24.1,15.6   c5.7,4.7,10.9,9.8,15.2,15.9c3.2,4.5,5.7,9.2,7.4,14.4C1422.2,373.1,1421.9,381.6,1418.6,389.9z"></path>		<path class="st0" d="M476.4,743.7c-1.2-2.6-2.4-5.2-3.7-7.8c-20.2-41.3-40.4-82.7-60.7-124c-41.4-84.3-82.8-168.7-124.2-253   c-1.3-2.6-2.5-5.2-3.9-7.7c-3.6-6.5-8.5-12-14.7-16.2c-12.3-8.5-29.4-8.5-42,1.6c-4.6,3.6-8.2,8-11,13.2c-1.5,2.8-2.9,5.7-4.3,8.6   c-39.5,81.3-79,162.7-118.5,244c-23.4,48.3-46.6,96.7-70,145c-2,4.1-3.8,8.1-3,12.7c-0.8,5.4,0.7,10.2,3.1,14.8c1,2,2,4,3.1,5.9   c5.3,8.5,12.8,14.1,22.7,16.4c3.8,0.9,7.6,0.9,11.4,0.8c11-0.4,19.7-5,25.9-14.1c1.6-2.4,3-4.9,4.3-7.5   c12.9-25.4,25.7-50.7,38.6-76.1c1-2,1.9-4,3.1-5.9c2.1-3.5,5.2-5.6,9.4-5.7c2.2,0,4.5-0.1,6.7-0.1c11.8,0,23.7,0.1,35.5,0.1   c55.3,0,110.7,0.1,166,0.1c2.2,0,4.5,0.1,6.7,0c6.2-0.3,10.3,2.6,12.7,8.2c1,2.3,2.2,4.6,3.3,6.9c10.4,21.6,20.9,43.1,31.3,64.7   c1.4,2.9,2.8,5.7,4.3,8.5c2.8,5.1,6.5,9.5,11.2,13c6.6,5,14.2,7.7,22.4,7.3c12-0.6,22.3-5.4,29.9-14.9c3.9-4.8,6.4-10.3,7.1-16.5   C480.5,758.4,479.7,750.8,476.4,743.7z M320.7,606.4c-3.2,0.1-6.4,0.2-9.6,0.2c-24.6,0-49.2,0-73.8,0c-16.3,0-32.6,0-48.9,0   c-2.9,0-5.7-0.3-8.6-0.5c-0.7,0-1.6-1.5-1.3-2.2c0.7-1.8,1.4-3.6,2.2-5.3c21.9-46.1,43.9-92.2,65.8-138.3c0.8-1.7,1.8-3.3,2.8-5.2   c1,0.8,1.9,1.2,2.3,1.9c1,1.6,1.8,3.4,2.6,5.1c21.7,44.4,43.5,88.8,65.2,133.2c1.1,2.3,2.2,4.6,3.3,6.9   C323.8,604.5,322.9,606.3,320.7,606.4z"></path>		<path class="st0" d="M1555.8,228.6c3.9-0.1,7.6-1,11.2-2.2c6.2-2,10.3-6.2,12.3-12.4c1-3.1,1.7-6.1,2-9.3   c1.9-20.4,1.5-40.8,0.8-61.2c-0.1-3.5-0.5-7-1-10.5c-0.4-2.5-1-5-1.7-7.4c-2-6.7-6.5-10.8-13.2-12.6c-3.7-1-7.4-1.8-11.3-1.9   c-21.4-0.9-42.8-0.9-64.2,0c-0.6,0-1.3,0-1.9,0.1c-3.4,0.7-6.9,1.1-10.3,2.2c-5.8,1.8-9.9,5.7-11.9,11.5c-0.5,1.5-0.9,3-1.3,4.6   c-1.4,5.6-1.8,11.3-1.8,17.1c0,15.6,0,31.3,0,46.9c0,2.6,0,5.1,0.3,7.6c0.5,3.8,1,7.6,1.8,11.3c1.8,7.4,6.3,12.3,13.8,14.4   c3.4,1,6.8,1.7,10.3,1.8c10.8,0.4,21.7,0.8,32.6,1.3C1533.5,229.4,1544.6,229,1555.8,228.6z"></path>		<path class="st0" d="M1600.4,312.4c-0.2-1.9-0.9-3.7-1.6-5.5c-1.4-3.8-4.1-6.3-7.8-8c-3-1.3-6.1-1.8-9.3-2.1   c-17.2-1.6-34.5-1.4-51.7-0.4c-2.2,0.1-4.5,0.3-6.7,0.7c-2.2,0.4-4.4,1-6.5,1.7c-4.6,1.5-7.5,4.8-9.1,9.2c-1.3,3.6-2,7.4-2.1,11.3   c-0.2,8.3-0.4,16.6-0.6,25.5c0.2,8,0.4,16.7,0.6,25.3c0.1,3.5,0.8,7,1.9,10.3c1.6,4.9,4.8,8.3,9.7,9.7c2.4,0.7,4.9,1.3,7.5,1.6   c16.6,1.8,33.2,1.4,49.8,0.7c3.2-0.1,6.4-0.4,9.5-1c2.5-0.4,5-1.2,7.3-2.2c3-1.3,5.4-3.5,6.7-6.5c0.9-2,1.8-4.2,2.1-6.3   c0.7-5,1.4-10.1,1.5-15.2c0.2-11.5,0.2-23,0-34.5C1601.7,321.9,1601,317.2,1600.4,312.4z"></path>		<path class="st0" d="M1329.3,191.4c1.3,6.6,5.5,10.7,12.1,12.1c3.7,0.8,7.6,1.6,11.4,1.6c14.1,0.2,28.1,0.2,42.2,0   c4.1-0.1,8.3-0.9,12.3-1.8c5.7-1.3,9.8-4.7,11.3-10.5c0.8-2.8,1.4-5.6,1.6-8.4c0.5-8.6,0.8-17.2,1.2-26   c-0.4-8.8-0.8-17.7-1.2-26.6c-0.2-3.2-0.7-6.3-2-9.3c-1.6-3.7-4.2-6.3-7.9-7.9c-2.7-1.2-5.5-1.6-8.4-1.9c-15-1.7-30-1.1-45-0.8   c-4.1,0.1-8.3,0.6-12.4,1.2c-8.3,1.2-13.9,5.2-15.4,14.5c-0.6,3.8-1.3,7.6-1.4,11.4c-0.2,13.4-0.2,26.8,0,40.2   C1327.7,183.2,1328.4,187.4,1329.3,191.4z"></path>		<path class="st0" d="M1686.7,220.1c-0.9-6.8-4.4-10.4-11-11.2c-2.5-0.3-5.1-0.5-7.6-0.6c-4.2-0.1-8.3,0-12.5,0c0-0.1,0-0.2,0-0.3   c-5.7,0.2-11.5,0.3-17.2,0.6c-1.9,0.1-3.9,0.3-5.7,0.8c-3.9,1.1-6.9,3.5-7.9,7.6c-0.7,2.8-1.4,5.6-1.5,8.5   c-0.2,9.9-0.2,19.8,0,29.7c0.1,3.1,0.9,6.3,1.7,9.4c0.8,2.9,2.9,4.9,5.8,6c3,1.1,6.1,1.9,9.4,1.9c9.9,0,19.8,0.1,29.7,0   c2.8,0,5.7-0.8,8.5-1.4c4.6-1.1,7-4.3,8-8.7c0.6-2.5,0.8-5.1,0.8-7.6c0.1-9.6,0.1-19.2,0-28.7C1687.2,224,1687,222,1686.7,220.1z"></path>		<path class="st0" d="M1645.8,78.5c2.9-0.7,5-2.8,6-5.7c1.2-3.3,1.9-6.8,1.9-10.3c0-8.9,0-17.9,0-26.8c0-3.2-0.6-6.4-1.7-9.4   c-0.8-2.5-2.5-4.4-5-5.5c-2.3-1.1-4.8-1.7-7.4-1.8c-5.4-0.1-10.8-0.3-16.3-0.4c0,0.1,0,0.2,0,0.3c-5.4,0-10.8,0-16.3,0   c-2.6,0-5.1,0.5-7.5,1.5c-2.8,1.2-4.8,3.1-5.8,6c-1.1,3-1.6,6.2-1.7,9.4c0,9.2,0,18.5,0,27.7c0,3.2,0.6,6.3,1.8,9.3   c1.1,2.9,3.2,4.9,6.1,5.6c3.7,0.9,7.5,1.6,11.3,1.7c7.6,0.3,15.3,0.3,23,0C1638.3,80.1,1642.1,79.4,1645.8,78.5z"></path>		<path class="st0" d="M1210.7,972.3c-9.7-21.9-19.5-43.7-29.2-65.5c-0.6-1.5-1.3-2.9-2.2-4.2c-0.5-0.7-1.4-1.3-2.3-1.5   c-1.2-0.3-2.5-0.3-3.8-0.3c-1.7,0.1-3.1,0.8-3.9,2.4c-0.7,1.4-1.4,2.9-2,4.3c-9.3,21.7-18.6,43.4-27.9,65.1   c-0.5,1.2-1,2.4-1.4,3.6c-0.7,2,0.5,3.7,2.8,3.7c1.9,0,3.8,0,5.7-0.2c0.8-0.1,1.8-0.7,2.3-1.4c0.9-1.3,1.6-2.7,2.3-4.2   c2-4.7,4-9.4,6-14.1c0.8-1.9,2.3-3,4.5-3c7-0.1,14-0.1,21.1-0.1c9.3,0,8.3-0.4,12.1,7.7c1.9,4,3.8,8.1,5.6,12.2   c1.1,2.4,2.9,3.2,5.4,3.2c0.6,0,1.3,0,2.5,0c0.4,0,1.3-0.1,2.3-0.2c1.1-0.1,2.2-1.8,1.8-2.9   C1211.8,975.3,1211.3,973.8,1210.7,972.3z M1184,945.1c-0.5,0.3-1.2,0.5-1.8,0.5c-2.5,0-5.1,0-7.6,0c0,0.1,0,0.2,0,0.3   c-2.8-0.2-5.7-0.4-8.5-0.6c-0.7,0-1.6-1.5-1.4-2.1c2.4-7.2,5.1-14.2,8.8-20.9c0.2-0.3,1.4-0.4,1.5-0.2c4.1,6.8,7,14.1,9.7,21.5   C1184.9,944,1184.5,944.8,1184,945.1z"></path>		<path class="st0" d="M712.9,935.8c0.5-0.1,1.1-0.6,1.4-1.1c0.8-1.2,1-4.7,0.1-5.5c-0.7-0.6-1.7-1.2-2.5-1.2   c-8-0.1-15.9-0.1-23.9,0c-3.3,0-6.2,1.3-9,2.9c-10.4,5.8-10.2,19.5-4.6,25.7c1.5,1.6,3.2,3.1,4.8,4.6c-0.4,0.7-0.5,1.3-0.9,1.7   c-1.7,1.5-3.5,2.8-4,5.2c-0.7,2.9,1.4,4.8,2.1,7.1c-1.1,2.2-3.6,2.5-5.2,3.9c-2,1.7-3.6,3.6-4.4,6.1c-1.8,5.9,0,11.7,4.8,15.4   c3.4,2.6,7.2,4.1,11.4,4.7c5.1,0.7,10.2,0.7,15.3,0c4.5-0.7,8.7-2.3,12-5.5c4-3.8,5.5-8.4,4.1-13.9c-1.2-4.3-4-7.3-7.9-9   c-2.6-1.2-5.4-1.8-8.2-2.6c-3.1-0.8-6.2-1.4-9.3-2.3c-1.2-0.3-2.2-1.2-3.2-1.9c-0.9-0.6-0.9-2.8,0-3.4c0.8-0.5,1.6-1.2,2.4-1.4   c3.7-1,7.5-1.5,11.1-2.8c8.6-3.2,13.1-13.3,9.4-21.1c-0.6-1.4-1.7-2.7-1.2-4.6C709.2,936.5,711.1,936.2,712.9,935.8z M700.3,984.9   c0.5,0.3,1,0.7,1.5,1.1c2.6,2,2.5,6.6-0.2,8.2c-1.9,1.1-4,1.9-6.1,2.5c-1.8,0.5-3.8,0.4-4,0.4c-5.2,0.1-8.6-0.4-11.7-2.1   c-3.4-1.9-4.1-7.4-1-9.7c1.5-1.1,3.2-2.2,5-2.5C689.4,981.7,695.1,982.1,700.3,984.9z M699.5,947.7c-0.5,3.3-3.6,6.4-7,7   c-0.6,0.1-1.3,0.1-2.7,0.3c-1.1-0.3-3-0.6-4.7-1.4c-3.4-1.7-4.8-5-4.2-8.9c0.5-3.4,3.5-6.4,7-7c2.9-0.5,5.8-0.3,8.2,1.6   C698.9,941.4,700.1,944.3,699.5,947.7z"></path>		<path class="st0" d="M550.3,937.5c-3.5-9.7-14.2-13.4-21.8-9.8c-2.3,1.1-4.4,2.5-6.6,3.8c-1.3,0.8-2.3,2.3-4.5,2.3   c-1.4-1.1-3-2.7-4.8-3.9c-5-3.5-10.5-4.6-16.3-2c-1.7,0.8-3.4,1.8-5.1,2.6c-0.8,0.4-1.7,0.5-2.4,0.7c-1-1.1-1.7-2.5-2.7-2.9   c-2.4-1-5-0.9-7.5-0.1c-0.5,0.2-1.1,0.8-1.2,1.3c-0.3,1.2-0.6,2.5-0.6,3.7c0,13.4,0,26.8,0,40.2c0,1,0.1,1.9,0.1,2.9   c0.1,1.6,1.4,3.1,3,3.2c1.6,0.1,3.2,0,4.8-0.1c1.1-0.1,2.4-1.4,2.5-2.5c0.2-2.9,0.3-5.7,0.3-8.6c0.1-8.6,0-17.2,0.1-25.4   c5.6-6.3,7.6-7.3,13.3-6.9c3.4,0.2,6.1,2.3,7,5.6c0.9,3.4,1.3,6.9,1.3,10.4c0,6.4,0,12.8,0,19.2c0,1.9,0.2,3.8,0.4,5.7   c0.1,1.2,1.4,2.4,2.5,2.6c0.9,0.1,1.9,0.3,2.9,0.2c3.9,0,5-1.2,5.1-5.2c0.1-2.9,0-5.7,0.1-8.6c0-7,0.1-14.1,0-21.1   c0-2.1,0.9-3.7,2.4-5c1.2-1,2.5-2,4-2.6c6.1-2.9,13.2-0.5,14.2,7.5c0.3,2.5,0.4,5.1,0.4,7.6c0.1,6.1,0,12.1,0,18.2   c0,1.9,0.1,3.8,0.3,5.7c0.2,2.3,1.7,3.3,3.9,3.4c1.3,0.1,2.6,0,3.8-0.1c1.6-0.1,3-1.6,3-3.2c0-10.5,0.1-21.1-0.1-31.6   C551.9,942.5,551.1,939.9,550.3,937.5z"></path>		<path class="st0" d="M874.7,962.9c-1.5,0.6-3,1.1-4.4,1.8c-5.5,2.8-11.4,4.1-17.4,4.8c-5.5,0.7-10.9-0.2-16-2.1   c-10.1-3.7-18.2-13.5-18-26.8c0.2-13.4,7.8-23.8,20.7-27.8c6-1.9,12-1.8,18-0.7c4.7,0.9,9.3,2.3,13.6,4.5c1.4,0.7,2.9,1.2,4.6,0.8   c0.3-0.6,0.7-1.1,0.7-1.7c0.1-2.2,0.2-4.5,0.1-6.7c-0.1-1.7-1.2-2.9-2.8-3.6c-5.9-2.6-12.1-4-18.4-5.1c-7.5-1.3-14.7-0.3-21.7,2.1   c-18.4,6.4-28.7,22.9-27,42.6c1.7,18.8,16.9,33.9,35.7,35.2c4.8,0.3,9.6,0.3,14.4-0.1c6.1-0.5,11.9-2.2,17.4-4.8   c1.9-0.9,3.1-2.4,3-4.5c0-2.2-0.2-4.4-0.4-6.6C876.9,963.5,875.4,962.6,874.7,962.9z"></path>		<path class="st0" d="M81.1,901.4c-1.9-0.3-3.8-0.5-5.7-0.5c-16.6,0-33.3,0-49.9,0c-1.6,0-3.2,0.1-4.8,0.1   c-1.7,0.1-3.1,1.3-3.2,2.9c-0.1,1.6,0,3.2,0.1,4.7c0.1,1.2,1.3,2.3,2.6,2.4c1.9,0.1,3.8,0.2,5.7,0.2c4.5,0,9,0,13.4,0.1   c3.3,0.1,4.4,1.2,4.5,4.7c0.1,2.2,0.1,4.5,0.1,6.7c0,7.3,0,14.7,0,22c0,0,0.1,0,0.1,0c0,9.9-0.1,19.8,0,29.7   c0,3.9,1.4,5.1,5.2,5.2c1.3,0,2.5-0.1,3.8-0.2c1-0.1,2.5-1.5,2.6-2.5c0.1-2.9,0.4-5.7,0.4-8.6c0-15.3,0-30.7,0-46   c0-2.9,0.3-5.7,0.5-8.6c0.1-1.1,1.5-2.3,2.7-2.4c1.6-0.1,3.2-0.2,4.8-0.2c4.5,0,9,0,13.4-0.1c1.3,0,2.5-0.2,3.8-0.5   c0.6-0.1,1.3-0.6,1.4-1.1c0.9-2.4,1.2-4.9-0.2-7.3C82.3,902,81.7,901.5,81.1,901.4z"></path>		<path class="st0" d="M380.3,927.9c-2.8-0.2-5.8-0.3-8.6,0.1c-10.3,1.4-17.8,6.9-21.5,16.7c-3.8,10.1-2.1,19.5,5.3,27.5   c5.5,6,12.5,8.6,21,8.3c4.2,0.3,8.5-0.6,12.6-2.5c10.5-4.8,16.6-16.2,14.8-27.4C402,938.1,392.5,928.9,380.3,927.9z M382.4,969.4   c-6.6,2.5-14.8,0.4-19.1-4.8c-1.6-2-2.8-4.2-3.1-6.8c-0.4-2.9-0.3-5.7,0.2-8.5c0.9-5,6.4-11,12.5-11.4c1.6-0.1,3.2-0.1,4.7-0.1   c8.2,0.1,15.6,7.4,15.2,16.2C393.1,961.1,389,966.9,382.4,969.4z"></path>		<path class="st0" d="M955.9,901.4c-1.3-0.1-2.5-0.4-3.8-0.4c-17.9,0-35.7,0-53.6,0c-1.3,0-2.5,0.2-3.8,0.4   c-1.1,0.1-2.3,1.4-2.3,2.7c-0.1,1.6,0,3.2,0.1,4.7c0.1,1.1,1.4,2.3,2.6,2.4c3.2,0.1,6.4,0.2,9.5,0.3c3.8,0.1,7.6,0.1,11.5,0.2   c1.2,0,2.4,1.3,2.5,2.5c0.2,2.9,0.3,5.7,0.3,8.6c0,15.6,0,31.2,0,46.9c0,2.5,0.1,5.1,0.5,7.6c0.1,0.8,1,1.9,1.7,2.1   c8.1,1.6,10,0.9,9.9-6.4c0-2.2,0-4.5,0-6.7c0-14.3,0-28.7,0-43c0-2.5,0-5.1,0.2-7.6c0.1-1.2,0.7-2.4,1.2-3.6   c2.1-0.1,4-0.4,5.9-0.4c4.1-0.1,8.3,0,12.4,0c1.6,0,3.2-0.1,4.8-0.2c1.2-0.1,2.5-1.2,2.6-2.4c0.1-1.9,0.1-3.8-0.2-5.7   C957.8,902.3,957,901.5,955.9,901.4z"></path>		<path class="st0" d="M1463.1,63.1c0.6,2.3,2.2,3.8,4.5,4.5c5.9,1.7,21.8,1.7,27.4-0.1c2-0.6,3.2-2,4-3.8c0.4-0.9,0.8-1.8,0.9-2.7   c0.7-7.6,0.8-15.3,0-22.9c-0.4-4.1-2.5-6.9-7.4-7.4c-3.8-0.4-7.6-0.3-11.7-0.5c-3.6,0.1-7.4,0.2-11.2,0.5   c-3.5,0.3-5.9,2.6-6.7,5.9c-0.3,1.2-0.7,2.5-0.7,3.7c-0.1,6-0.1,12.1,0,18.1C1462.2,60,1462.7,61.6,1463.1,63.1z"></path>		<path class="st0" d="M239.9,939.7c-1.9-10.2-14.1-15.7-22.3-12.2c-2.6,1.1-5.2,2.3-8,3.6c-1.4-1.3-2.2-2.5-3.3-2.8   c-2.4-0.7-5-0.8-7.5,0.1c-0.5,0.2-1.1,0.7-1.3,1.3c-0.3,1.2-0.6,2.5-0.6,3.7c0,13.7,0,27.4,0,41.1c0,0.9,0.2,1.9,0.4,2.8   c0.2,1,1.5,2.3,2.7,2.4c1.6,0.1,3.2,0.1,4.8,0.1c1.6-0.1,3.1-1.5,3.3-3c0.1-1.6,0.3-3.2,0.3-4.8c0-6.7,0-13.4,0-20.1   c0-2.5,0.1-5.1,0.2-7.6c0.1-1.7,0.9-3,2.1-4.2c3.4-3.6,7.5-4.6,12.2-3.8c2,0.3,3.6,1.3,4.7,3c0.8,1.3,1.6,2.8,1.8,4.3   c0.4,2.8,0.5,5.7,0.6,8.6c0.1,6.7,0,13.4,0.1,20.1c0,1.6,0.2,3.2,0.4,4.7c0.1,1.1,1.4,2.5,2.5,2.5c1.9,0.1,3.8,0.1,5.7-0.1   c1.1-0.1,2.3-1.5,2.4-2.6c0.1-0.6,0.2-1.3,0.2-1.9c0-8.9,0.1-17.8,0-26.8C241,945.4,240.4,942.5,239.9,939.7z"></path>		<path class="st0" d="M1092,940c-1.8-10.2-13.9-15.9-22.1-12.5c-2.6,1.1-5.2,2.3-8.5,3.8c-1.7-2-3.2-3.6-5.7-3.4   c-1.6,0.2-3.2,0.2-4.7,0.5c-0.5,0.1-1.1,0.6-1.3,1.1c-0.4,0.8-0.6,1.8-0.6,2.7c0,14.3,0,28.7,0,43c0,0.9,0.2,1.9,0.5,2.8   c0.2,0.5,0.8,1.1,1.3,1.3c2.1,0.8,4.4,0.7,6.6,0.3c1.1-0.2,2.3-1.5,2.4-2.7c0.2-1.9,0.4-3.8,0.4-5.7c0-6.7,0-13.4,0-20.1   c0-2.2,0-4.5,0.3-6.7c0.1-1.2,0.6-2.5,1.3-3.5c3.3-4.4,9.5-6.2,14.6-4.1c1.1,0.4,2.1,1.4,2.9,2.3c1.3,1.5,2,3.3,2.2,5.2   c0.2,2.5,0.3,5.1,0.4,7.6c0.1,6.4,0,12.7,0,19.1c0,1.9,0.2,3.8,0.3,5.7c0.1,1.5,1.6,2.8,3.3,2.9c1.3,0.1,2.5,0.1,3.8,0   c2.2-0.1,3.7-1.5,3.7-3.6c0.1-9.9,0.1-19.7,0-29.6C1093,944.4,1092.4,942.2,1092,940z"></path>		<path class="st0" d="M1717.7,135.6c-0.1-0.6-0.2-1.3-0.4-1.9c-0.5-1.6-1.5-2.9-3-3.5c-1.4-0.6-3-1.3-4.5-1.4   c-6.7-0.1-13.3-0.1-20,0c-0.9,0-1.9,0.4-2.8,0.6c-2.6,0.8-4.3,2.5-5,5.2c-1.2,4.9-1.4,19.4-0.2,24.6c0.1,0.3,0.2,0.6,0.3,0.9   c0.9,2.6,2.5,4.5,5.3,4.8c4.1,0.4,8.2,0.6,12.4,0.8c0-0.1,0-0.2,0-0.2c1.9,0,3.8,0.1,5.7,0c1.9-0.1,3.8-0.2,5.7-0.4   c4-0.5,6.2-2.7,6.7-6.8C1718.5,150.8,1718.5,143.2,1717.7,135.6z"></path>		<path class="st0" d="M1254.4,204.9c0.9,0.2,1.9,0.4,2.8,0.4c6,0,12.1,0.1,18.1,0c1.3,0,2.6-0.2,3.8-0.6c2.6-0.8,4.4-2.4,5.2-5.1   c1.3-4.8,1.4-21,0-25.6c-0.9-3-2.9-4.9-6.1-5.2c-3.8-0.3-7.6-0.4-11.9-0.6c-3.7,0.2-7.8,0.3-11.9,0.7c-2.8,0.3-5.3,2.9-5.7,5.7   c-0.3,1.9-0.5,3.8-0.5,5.7c0,6,0.1,12.1,0.4,18.1C1248.7,201.7,1251.1,204.2,1254.4,204.9z"></path>		<path class="st0" d="M1450,971.5c-4.8,0.4-5,0.3-5-4.2c-0.1-6.1,0-12.1,0-18.2c0-2.2-0.1-4.5-0.1-6.7c-0.1-7-5.1-12.9-11.6-14.8   c-5.8-1.7-11.4-1.5-16.9,0.8c-6.5,2.7-8.9,5.4-7.5,13.4c0.1,0.8,1.5,1.6,2.2,1.1c1.6-1,3.2-2,4.8-3.1c2.4-1.7,5.2-2.4,8.1-2.8   c4.4-0.7,8.3,1.8,9.7,5.9c1.1,3.3,0,5.6-3.4,6.6c-3.1,0.9-6.1,2-9,3.3c-2.3,1-4.7,2.1-6.8,3.4c-2.5,1.5-4.4,3.7-5.6,6.4   c-3.8,9.1,2.6,17.2,10.1,17.8c3.2,0.2,6.4,0.1,9.4-1.4c1.7-0.8,3.5-1.4,5.2-2c0.5,0.3,0.8,0.4,1,0.6c5.3,4.4,10.6,3.6,15.9,0.2   c1.4-0.9,2-2.4,1.8-4.1C1452.2,972,1451.5,971.4,1450,971.5z M1434.2,966.5c-0.2,2.5-1.6,4.2-3.8,5c-1.7,0.6-3.7,0.9-5.5,0.9   c-2.4,0.1-4.1-1.2-5.3-3.3c-1.4-2.5-0.8-4.9,0.6-7.1c0.5-0.8,1.2-1.5,2-2c2.9-2,6-3.4,9.4-4.2c0.7-0.2,2.1,0.6,2.2,1.4   c0.2,1.9,0.4,3.7,0.3,3.3C1434.2,964,1434.3,965.3,1434.2,966.5z"></path>		<path class="st0" d="M178.8,971.6c-0.9-0.1-1.9,0.3-2.8,0.3c-1.5,0.1-2.7-0.8-2.8-1.9c-0.2-3.2-0.3-6.4-0.3-9.5   c-0.1-6.4,0-12.8-0.3-19.2c-0.3-6.4-3.9-10.6-9.7-13c-3.3-1.4-6.7-2-10.3-1.7c-4.8,0.5-9.5,1.6-13.2,4.9c-0.9,0.8-1.8,1.9-2.1,3.1   c-0.7,2.5-0.8,5,0.2,7.5c0.2,0.4,1.1,0.9,1.4,0.7c1.7-0.8,3.3-1.8,4.9-2.8c2.5-1.6,5.2-2.4,8.1-2.9c4.4-0.8,8.6,1.7,9.8,5.7   c1,3.3,0.3,5.6-3.2,6.7c-3,0.9-6,2.1-9,3.3c-2.3,1-4.7,2.1-6.8,3.4c-2.2,1.3-3.9,3.2-5.2,5.5c-4.7,8.3,0.9,18.5,10.3,18.8   c2.9,0.1,5.7-0.1,8.4-1.3c1.7-0.8,3.5-1.4,5.3-2.1c2.4,1.1,4.1,3.2,6.8,3.4c3.7,0.3,7-0.5,10-2.5c1.5-1,2.2-2.9,1.7-5.1   C179.8,972.3,179.2,971.6,178.8,971.6z M162.1,965.8c-0.1,3.1-1.8,5.4-4.8,6.1c-1.5,0.4-3.1,0.5-4.7,0.4c-2.4-0.1-4.2-1.3-5.1-3.5   c-1.1-2.8-0.4-6.2,1.5-7.9c3.2-2.8,6.9-4.2,10.9-5.2c0.7-0.2,1.9,0.9,2,1.6c0.1,1.9,0.2,3.8,0.2,3.6   C162.1,963.9,162.1,964.9,162.1,965.8z"></path>		<path class="st0" d="M650.3,940.1c-1.9-10.8-14.2-15.9-22-12.7c-2.6,1.1-5.2,2.3-9.1,4c-0.9-3.2-3.4-3.7-6.1-3.6   c-1,0-1.9,0.1-2.9,0.2c-1.2,0.1-2.5,1.3-2.6,2.4c-0.1,1.3-0.3,2.5-0.3,3.8c0,13.1,0,26.2,0,39.3c0,1.3,0.2,2.5,0.4,3.8   c0.1,1.1,1.4,2.3,2.6,2.4c0.9,0.1,1.9,0.2,2.9,0.2c3.5,0,4.9-1.2,5-4.3c0.1-2.9,0.1-5.7,0.1-8.6c0-6.7,0.1-13.4,0-20.1   c0-3.9,1.8-6.6,4.9-8.7c2.8-1.9,5.9-2.2,9.2-1.9c2.8,0.3,4.7,1.7,6,4.1c1.1,2,1.6,4.2,1.7,6.4c0.1,3.8,0.1,7.7,0.1,11.5   c0,5.7,0,11.5,0.1,17.2c0.1,3.2,1.5,4.3,4.9,4.4c1,0,1.9-0.1,2.9-0.2c1.1-0.1,2.6-1.4,2.8-2.3c0.2-1.3,0.4-2.5,0.4-3.8   c0-8,0.1-16,0-23.9C651.3,946.5,650.9,943.3,650.3,940.1z"></path>		<path class="st0" d="M1252.7,900.4c-2.2-0.6-4.4-0.8-6.6-0.4c-7.3,1.4-12.1,5.7-14.4,12.6c-1.1,3.3-1.6,6.8-1.9,10.3   c-0.3,2.9-1,4.9-4.4,5c-1.8,0-2.8,1.4-2.9,3.2c-0.1,0.9-0.1,1.9,0,2.9c0.2,1.7,1.1,2.9,2.9,3.4c1.2,0.3,2.4,0.7,3.5,1   c1.2,2.6,0.9,5.2,0.9,7.8c0.1,8.9,0,17.9,0.1,26.8c0,1.6,0.2,3.2,0.5,4.7c0.1,0.5,0.7,1.2,1.2,1.4c2.4,1,5,1.2,7.4,0   c0.7-0.3,1.5-1.4,1.6-2.2c0.3-1.9,0.4-3.8,0.4-5.7c0-8.6,0-17.3,0.1-25.9c0-2.2,0.3-4.4,0.5-6.6c1.2-0.4,2-0.8,2.9-1   c0.9-0.2,1.9-0.3,2.8-0.5c1.4-0.3,2.2-1.3,2.4-2.6c0.2-0.9,0.2-1.9,0.2-2.8c0-2.5-0.9-3.6-3.1-4c-0.9-0.2-1.9-0.2-2.9-0.3   c-1.4-0.2-2.4-1.2-2.6-2.4c-0.4-2.9-0.3-5.8,0.6-8.5c0.9-2.9,2.8-5,6.1-5.4c1.9-0.2,3.8-0.3,5.7-0.5c1.2-0.1,2.3-1.3,2.4-2.6   c0.1-1.3,0.2-2.5,0.1-3.8C1256,902.3,1254.8,901,1252.7,900.4z"></path>		<path class="st0" d="M336.5,899.9c-1.2-0.1-2.6,0-3.8,0.2c-8.1,1.6-12.8,6.8-14.8,14.6c-0.8,3.1-1,6.3-1.5,9.5   c-0.3,2.1-1.3,3.3-3.6,3.7c-2.8,0.5-3.3,1.4-3.4,3.7c0,1-0.1,1.9,0.1,2.9c0.3,1.3,0.8,2.4,2.2,2.9c1.2,0.4,2.4,0.8,4.4,1.4   c0.1,3.5,0.3,6.3,0.3,9.2c0,8,0,16,0,24c0,1.9,0.3,3.8,0.5,5.7c0.1,0.6,0.6,1.2,1.1,1.5c1.9,1.3,6.7,1.2,8.2-0.2   c0.4-0.4,0.9-1,1-1.6c0.2-1.9,0.4-3.8,0.4-5.7c0-8.3,0-16.6,0-24.9c0-2.2,0.1-4.5,0.3-6.7c0.1-0.9,0.8-1.7,1.8-1.9   c1.3-0.2,2.5-0.3,3.8-0.6c2.1-0.5,3-1.8,3.2-4.1c0-0.6,0-1.3,0-1.9c-0.1-1.8-1.2-3.1-2.8-3.4c-1.6-0.3-3.2-0.4-4.7-0.7   c-0.5-0.1-1-0.8-1.2-1.4c-0.8-3.5-0.5-7,1-10.3c1.1-2.5,3.1-4.1,5.9-4.3c1.9-0.2,3.8-0.1,5.7-0.5c0.7-0.1,1.4-1.1,1.9-1.8   c0.3-0.5,0.3-1.2,0.3-1.9C343.2,901.7,342.3,900.5,336.5,899.9z"></path>		<path class="st0" d="M284.5,950.4c-2.7-1.6-5.5-3.2-8.2-4.9c-1.3-0.9-2.3-2.1-3.4-3.3c-0.7-0.8-0.5-2.7,0.2-3.6   c0.8-1,1.8-1.8,3.1-2.1c2.6-0.5,5.1-0.3,7.5,0.7c2.4,1,4.7,1.9,7.1,2.8c0.7,0.3,2.3-0.5,2.3-1.2c0.1-1.9,0.3-3.8,0.2-5.7   c-0.1-1.3-0.7-2.4-2-3.1c-4.3-2.3-8.9-3.6-13.7-3.6c-4.3,0-8.2,1.2-11.6,3.7c-4.2,3-6.5,9.2-4.4,14.5c1.2,3.1,3,5.6,5.7,7.5   c3.4,2.4,6.9,4.5,10.4,6.8c1.8,1.2,3.7,2.5,5.3,3.9c1.9,1.7,1.4,5.5-0.8,6.7c-0.6,0.3-1.2,0.6-1.8,0.7c-3.2,0.9-6.4,0.5-9.4-0.6   c-2.1-0.8-4-2-6.1-2.8c-1.1-0.5-2.4-0.6-3.5-0.9c-1.6,2.6-1.1,5.2-0.9,7.7c0.1,1.4,0.9,2.3,2.1,3c6.7,3.9,13.9,4.5,21.3,3.2   c1.8-0.3,3.7-1.2,5.3-2.2c8.4-5.1,8.2-15,3.5-20.7C290.2,954.4,287.5,952.2,284.5,950.4z"></path>		<path class="st0" d="M1390.6,968.6c-1.6,0.1-3.2,0.2-4.7,0.7c-3.4,1.1-6.9,1.4-10.4,0.9c-5-0.7-9.2-2.8-11.7-7.4   c-3.2-6-3.2-12.3,0.1-18.3c3.3-6,9.6-8.6,16.3-7c3.1,0.7,6.1,1.8,9.1,2.6c0.4,0.1,1.4-0.5,1.4-0.9c0.2-2.2,0.3-4.4,0.4-6.6   c0-1.4-0.9-2.4-2.1-3c-3.7-1.9-7.8-2.9-12-3c-13.5-0.3-22.8,7.7-25.7,18.7c-1.3,5.1-1.6,10.1-0.5,15.2c2.1,9.9,8,16.5,17.9,19.2   c2.7,0.8,5.7,0.8,6.5,0.9c6.5,0.1,11-0.3,15.1-2.4c0.8-0.4,1.6-1.2,1.8-2c0.7-2.1,0.8-4.4-0.2-6.5   C1391.8,969.1,1391.1,968.6,1390.6,968.6z"></path>		<path class="st0" d="M779.2,901.1c-1,0-1.9,0-2.9,0.1c-2.4,0.1-3.7,1.2-3.8,3.4c-0.1,2.5-0.2,5.1-0.2,7.6c0,9.2,0,18.5,0,27.7   c0,10.2,0,20.4,0,30.6c0,2.2,0.2,4.4,0.3,6.7c0.1,1.2,1.3,2.5,2.4,2.6c1.6,0.1,3.2,0.3,4.7,0.2c2.5-0.1,4.2-0.8,4.4-3.9   c0.1-2.9,0.1-5.7,0.1-8.6c0-17.8,0-35.7,0-53.5c0-2.5,0-5.1-0.1-7.6C784.3,902.1,783.2,901.1,779.2,901.1z"></path>		<path class="st0" d="M117.3,927.6c-3.9-1.8-7.5-1.1-10.9,1.1c-1.1,0.7-2.1,1.5-3,2.4c-1.2,1.1-2.1,2.4-3.3,3.5   c-0.4,0.4-1.2,0.6-1.7,0.4c-0.4-0.1-0.6-0.9-0.7-1.5c-0.2-0.9-0.1-1.9-0.3-2.9c-0.2-1.5-1.1-2.5-2.3-2.6c-1-0.1-1.9-0.2-2.9-0.2   c-1,0.1-1.9,0.1-2.9,0.3c-1,0.1-2.4,1.5-2.4,2.6c-0.1,1.6-0.3,3.2-0.3,4.8c0,12.5,0,24.9,0,37.4c0,1.3,0.1,2.5,0.2,3.8   c0.1,1.7,1.4,3.1,3,3.2c1.6,0.1,3.2,0,4.8-0.1c1.3-0.1,2.5-1.3,2.6-2.4c0.2-1.9,0.3-3.8,0.4-5.7c0.1-6.4,0.1-12.8,0.1-19.2   c0-3.3,1-6.3,2.6-9.1c3.1-5.4,8.1-7.1,13.9-4.7c1.5,0.6,2.8,1.5,4.3,2c0.5,0.2,1.4,0,1.7-0.4c1.8-1.8,3.2-4,3.8-6.5   c0.1-0.5-0.1-1.3-0.4-1.8C122,929.8,119.7,928.7,117.3,927.6z"></path>		<path class="st0" d="M450,926.6c-0.9-0.1-2,0.1-2.8,0.5c-1.7,0.8-3.5,1.6-5,2.7c-1.5,1.1-2.8,2.6-4.2,3.9   c-1.1,1.1-2.5,0.8-2.8-0.6c-0.1-0.6-0.1-1.3-0.3-1.9c-0.6-2.6-1.3-3.3-3.8-3.4c-1,0-1.9-0.1-2.9,0c-2.9,0.1-4.3,1.2-4.4,3.8   c-0.1,1.9-0.1,3.8-0.1,5.7c0,5.4,0,10.9,0,16.3c0,0,0,0,0,0c0,6.4,0,12.8,0,19.2c0,1.6,0.1,3.2,0.6,4.7c0.2,0.8,1.2,1.6,2,1.8   c1.5,0.4,3.1,0.4,4.7,0.4c2.2-0.1,3.8-1.4,3.8-3.5c0.1-3.8,0.2-7.7,0.2-11.5c0.1-4.8,0-9.6,0.2-14.4c0.1-3.7,1.6-6.8,4-9.5   c2.5-2.9,5.7-4.1,9.5-3.2c1.5,0.4,2.9,1.2,4.4,1.8c0.9,0.4,1.7,0.9,2.6,1.1c0.5,0.1,1.4-0.1,1.8-0.4c1.9-1.8,3.2-4,3.9-6.5   c0.1-0.5-0.1-1.3-0.4-1.7C458,928.5,454.2,927,450,926.6z"></path>		<path class="st0" d="M1300.3,929.2c-6.7-3.8-10.8-3.4-16.6,1.5c-1,0.8-1.8,1.8-2.7,2.7c-1.8,1.7-2.8,1.5-3.3-0.6   c-0.2-0.9-0.3-1.9-0.5-2.8c-0.2-1.1-1.1-1.7-2-1.8c-2.2-0.1-4.4-0.1-6.6,0.2c-0.7,0.1-1.5,1.1-1.9,1.9c-0.4,0.8-0.4,1.9-0.4,2.8   c0,13.7,0,27.5,0,41.2c0,0.9,0.2,1.9,0.3,2.8c0.2,1.1,1.4,2.5,2.6,2.5c1.9,0.1,3.8,0,5.7-0.1c1.1-0.1,2.3-1.5,2.4-2.6   c0.1-2.9,0.3-5.7,0.3-8.6c0.1-5.8,0-11.5,0.1-17.3c0.1-4,1.6-7.4,4.3-10.4c2.6-2.9,5.9-3.9,9.6-2.8c1.8,0.5,3.5,1.6,5.2,2.4   c1.7,0.8,3.2,0.5,4.1-1c1.2-1.9,2.2-3.8,3.2-5.5C1303.5,931.2,1301.9,930.1,1300.3,929.2z"></path>		<path class="st0" d="M584.8,931.1c-0.1-1.7-1.3-3.1-2.9-3.1c-1.6-0.1-3.2,0-4.8,0c-1.1,0-2.6,1.3-2.7,2.3   c-0.1,0.6-0.3,1.3-0.3,1.9c0,14.3,0,28.6,0,42.9c0,0.9,0.3,1.9,0.6,2.8c0.2,0.5,0.7,1.1,1.2,1.4c2.4,1.2,5,0.9,7.4,0   c0.5-0.2,1.1-0.9,1.2-1.4c0.3-1.5,0.5-3.1,0.5-4.7c0.1-6.4,0-12.7,0-19.1c0,0,0,0,0,0c0-4.1,0-8.3,0-12.4   C585,938.1,585,934.6,584.8,931.1z"></path>		<path class="st0" d="M1330.9,953.6c0-6.4,0-12.7,0-19.1c0-1.6-0.3-3.1-0.7-4.7c-0.1-0.5-0.7-1.1-1.2-1.4c-2.4-1.1-5-0.9-7.4-0.1   c-0.5,0.2-1,0.8-1.2,1.3c-0.3,0.9-0.5,1.8-0.5,2.8c0,14.3,0,28.6,0,43c0,0.6,0,1.3,0.3,1.9c0.5,0.8,1,1.7,1.8,2   c2.1,0.9,4.4,0.9,6.5,0c0.8-0.3,1.7-1.2,1.9-1.9c0.4-1.5,0.5-3.1,0.6-4.7C1330.9,966.4,1330.9,960,1330.9,953.6   C1330.9,953.6,1330.9,953.6,1330.9,953.6z"></path>		<path class="st0" d="M1026.7,953.5c0-6.7,0-13.4,0-20.1c0-1.3-0.2-2.5-0.5-3.8c-0.1-0.5-0.8-1.1-1.3-1.3c-2.2-0.7-4.4-0.8-6.6-0.1   c-0.8,0.2-1.4,1.2-1.9,1.9c-0.3,0.5-0.3,1.2-0.3,1.9c0,14.4,0,28.7,0,43.1c0,0.6,0.2,1.3,0.3,1.9c0.2,1.2,1.3,2.5,2.5,2.6   c1.9,0,3.8,0.1,5.7-0.2c0.7-0.1,1.6-1.2,1.8-1.9c0.4-1.5,0.5-3.1,0.5-4.7C1026.7,966.3,1026.7,959.9,1026.7,953.5   C1026.7,953.5,1026.7,953.5,1026.7,953.5z"></path>		<path class="st0" d="M1325.3,906.3c-3.3,0-6,2.6-6,5.9c-0.1,3.6,3.3,6.8,6.6,6.3c3.2-0.5,5.7-3.3,5.6-6.5   C1331.4,908.8,1328.6,906.3,1325.3,906.3z"></path>		<path class="st0" d="M1021.8,906.3c-3.6-0.3-6.9,2.8-6.8,6.3c0.1,3,3.3,6.1,6.2,6c2.8-0.1,5.9-2.3,6.3-6   C1027.7,909.5,1025,906.5,1021.8,906.3z"></path>		<path class="st0" d="M579.5,906.3c-3.9,0.1-6,3-6.2,5.9c-0.2,3.4,3.5,6.7,6.8,6.3c3.3-0.4,5.7-3.2,5.6-6.5   C585.5,908.7,582.9,906.2,579.5,906.3z"></path>	</g></g></svg>